<?xml version="1.0" encoding="UTF-8" standalone="no"?>
<!-- Generator: Adobe Illustrator 19.0.0, SVG Export Plug-In . SVG Version: 6.00 Build 0)  -->

import React from "react";

function Icon() {
  return (
    <svg
      xmlns="http://www.w3.org/2000/svg"
      x="0"
      y="0"
      enableBackground="new 0 0 512 512"
      version="1.1"
      viewBox="0 0 512 512"
      xmlSpace="preserve"
    >
      <g fill="#fff">
        <g fill="#fff">
          <path
            fill="#fff"
            d="M512 224c0-114.688-100.512-208-224-208-123.52 0-224 93.312-223.808 210.464.064.416 5.92 41.856-12.768 63.712C43.456 299.456 31.872 304 16 304c-8.832 0-16 7.168-16 16 0 44.352 32.864 75.168 99.168 93.12C97.312 419.136 96 425.376 96 432c0 35.296 28.704 64 64 64s64-28.704 64-64c0-.544-.16-1.024-.16-1.568C243.904 431.456 265.184 432 288 432c0 35.296 28.704 64 64 64s64-28.704 64-64c0-11.744-3.424-22.624-8.96-32.128C469.984 363.008 512 298.048 512 224zM383.328 376.544C374.048 371.264 363.456 368 352 368c-23.392 0-43.712 12.768-54.848 31.584-3.072.128-6.08.416-9.152.416-27.072 0-51.328-.992-74.208-2.4C202.4 379.84 182.592 368 160 368c-16.512 0-31.456 6.464-42.816 16.768-46.496-11.008-74.752-27.84-82.752-50.432 16.896-3.2 30.72-11.008 41.312-23.36C104.16 277.792 96.192 224 96 224c0-97.056 86.112-176 192-176s192 78.944 192 176c0 65.216-39.008 122.144-96.672 152.544z"
          ></path>
        </g>
      </g>
      <g fill="#fff">
        <g fill="#fff">
          <path
            fill="#fff"
            d="M224.64 160h-.32c-8.832 0-15.84 7.168-15.84 16s7.328 16 16.16 16 16-7.168 16-16-7.168-16-16-16z"
          ></path>
        </g>
      </g>
      <g fill="#fff">
        <g fill="#fff">
          <path
            fill="#fff"
            d="M352.64 160h-.32c-8.832 0-15.84 7.168-15.84 16s7.328 16 16.16 16 16-7.168 16-16-7.168-16-16-16z"
          ></path>
        </g>
      </g>
      <g fill="#fff">
        <g fill="#fff">
          <path
            fill="#fff"
            d="M371.488 240.384c-8.672-1.92-17.152 3.488-19.136 12.096C345.568 282.816 319.104 304 288 304c-31.072 0-57.568-21.184-64.384-51.52-1.952-8.64-10.496-13.952-19.136-12.096-8.608 1.952-14.016 10.496-12.096 19.136C202.528 304.576 241.856 336 288 336c46.176 0 85.504-31.456 95.616-76.48 1.952-8.64-3.488-17.184-12.128-19.136z"
          ></path>
        </g>
      </g>
    </svg>